# xmcd
#
# Track frame offsets: 
#        182
#        18710
#        40227
#        53540
#
# Disc length: 825 seconds
#
# Revision: 8
# Processed by: cddbd v1.5.2PL0 Copyright (c) Steve Scherf et al.
# Submitted via: ExactAudioCopy v1.0b3
#
DISCID=2a033704
DTITLE=Tic Tac Toe - Verpiss' Dich (MCD)
DYEAR=1996
DGENRE=Pop
TTITLE0=Verpiss' Dich (Single - Mix)
TTITLE1=Verpiss' Dich (Ich Vermiss' Dich - Mix)
TTITLE2=Verpiss' Dich (Egal, Verpiss' Dich - Mix)
TTITLE3=Verpiss' Dich (Ich Weiss Genau, Du Vermisst Mich - Mix)
EXTD=
EXTT0=
EXTT1=
EXTT2=
EXTT3=
PLAYORDER=
